<?xml version="1.0" encoding="UTF-8"?>
<!DOCTYPE svg PUBLIC "-//W3C//DTD SVG 1.1//EN" "http://www.w3.org/Graphics/SVG/1.1/DTD/svg11.dtd">
<!-- Creator: CorelDRAW X7 -->
<svg xmlns="http://www.w3.org/2000/svg" xml:space="preserve" width="17.4625mm" height="16.6158mm" version="1.1" style="shape-rendering:geometricPrecision; text-rendering:geometricPrecision; image-rendering:optimizeQuality; fill-rule:evenodd; clip-rule:evenodd"
viewBox="0 0 147 140"
 xmlns:xlink="http://www.w3.org/1999/xlink">
 <defs>
  <style type="text/css">
   <![CDATA[
    .str0 {stroke:#8449E7;stroke-width:3.36581}
    .fil1 {fill:none}
    .fil0 {fill:#8449E7}
   ]]>
  </style>
 </defs>
 <g id="图层_x0020_1">
  <metadata id="CorelCorpID_0Corel-Layer"/>
  <g id="_327520264">
   <path class="fil0" d="M67 74c3,1 6,4 13,0 0,5 3,6 7,5l1 0 0 -1 1 0c0,-2 1,-4 0,-6 -2,-2 -2,-1 -4,-2 0,-3 3,-8 -1,-13 -8,-12 -25,-3 -22,9 1,3 1,3 3,6 -3,-1 -3,-1 -5,0 -2,1 -2,2 -2,5 -9,-5 -12,-1 -15,0 0,-2 0,-3 -1,-5 -2,-2 -2,-1 -4,-2 7,-14 -10,-25 -20,-15 -6,6 -3,18 6,20 4,1 6,0 9,-1 1,5 3,6 7,5 0,3 -4,7 0,13 1,4 5,7 10,7 5,1 9,-2 11,-5 4,-7 1,-10 0,-14 5,0 6,-1 6,-6z"/>
   <path class="fil0" d="M89 78l-1 0 0 1 -1 0c0,2 -4,7 -1,14 2,3 6,6 11,6 8,0 16,-8 11,-19 4,0 6,-1 5,-7 6,4 12,4 17,-1 4,-5 4,-13 -1,-17 -8,-8 -20,-2 -21,8 0,4 2,6 4,9 -8,-2 -8,4 -7,5 -2,-1 -2,-1 -4,-2 -5,-1 -8,0 -12,3z"/>
   <path class="fil1 str0" d="M74 5c36,0 65,29 65,65 0,35 -29,64 -65,64 -35,0 -64,-29 -64,-64 0,-36 29,-65 64,-65z"/>
  </g>
  <rect class="fil1" width="147" height="140"/>
 </g>
</svg>
