<?xml version="1.0" encoding="UTF-8"?>
<!DOCTYPE svg PUBLIC "-//W3C//DTD SVG 1.1//EN" "http://www.w3.org/Graphics/SVG/1.1/DTD/svg11.dtd">
<!-- Creator: CorelDRAW X7 -->
<svg xmlns="http://www.w3.org/2000/svg" xml:space="preserve" width="36.8301mm" height="15.5575mm" version="1.1" style="shape-rendering:geometricPrecision; text-rendering:geometricPrecision; image-rendering:optimizeQuality; fill-rule:evenodd; clip-rule:evenodd"
viewBox="0 0 1008 426"
 xmlns:xlink="http://www.w3.org/1999/xlink">
 <defs>
  <style type="text/css">
   <![CDATA[
    .fil1 {fill:none}
    .fil0 {fill:#00AFEF}
   ]]>
  </style>
 </defs>
 <g id="图层_x0020_1">
  <metadata id="CorelCorpID_0Corel-Layer"/>
  <path class="fil0" d="M437 208c28,6 48,32 108,0 0,41 19,52 56,43l4 -4 5 -4 4 -5c3,-15 8,-27 -1,-42 -11,-16 -18,-11 -34,-18 7,-28 29,-61 -4,-108 -66,-95 -204,-22 -179,75 7,27 12,28 24,46 -18,-4 -24,-10 -41,2 -14,8 -15,16 -15,37 -72,-38 -97,-3 -121,4 4,-16 5,-24 -5,-38 -13,-17 -17,-10 -34,-18 61,-116 -81,-198 -154,-124 -52,51 -29,151 48,166 32,7 43,-1 72,-8 3,37 22,47 56,39 -5,23 -34,51 -7,106 14,27 44,51 80,54 41,3 75,-21 90,-44 33,-51 12,-76 5,-107 39,0 43,-14 43,-52z"/>
  <path class="fil0" d="M614 238l-4 5 -5 4 -4 4c-3,12 -35,53 -7,107 14,27 46,52 85,53 67,2 130,-68 86,-151 37,0 53,-13 43,-56 49,26 91,30 133,-14 37,-40 34,-101 -5,-136 -65,-62 -161,-14 -167,64 -3,39 12,52 26,73 -62,-15 -59,32 -56,39 -14,-4 -11,-6 -28,-12 -40,-13 -63,-3 -97,20z"/>
  <rect class="fil1" width="1008" height="426"/>
 </g>
</svg>
